<svg width="367" height="317" viewBox="0 0 367 317" fill="none" xmlns="http://www.w3.org/2000/svg">
<g clip-path="url(#clip0_4_4126)">
<g opacity="0.4">
<path d="M59.2652 313.678C146.199 313.678 216.667 244.207 216.667 158.477C216.667 72.7481 146.199 3.27734 59.2652 3.27734C-27.6683 3.27734 -98.1367 72.7929 -98.1367 158.522C-98.1367 244.252 -27.6683 313.723 59.2652 313.723V313.678Z" stroke="#EDF738" stroke-miterlimit="10"/>
<path d="M206.78 313.678C293.713 313.678 364.182 244.207 364.182 158.477C364.182 72.7481 293.713 3.27734 206.78 3.27734C119.846 3.27734 49.3779 72.7481 49.3779 158.477C49.3779 244.207 119.846 313.678 206.78 313.678Z" stroke="#EDF738" stroke-miterlimit="10"/>
<path d="M-98.7627 158.479H217.294" stroke="#EDF738" stroke-miterlimit="10"/>
</g>
</g>
<defs>
<clipPath id="clip0_4_4126">
<rect width="367" height="316" fill="white" transform="translate(0 0.5)"/>
</clipPath>
</defs>
</svg>
