<svg width="17" height="18" viewBox="0 0 17 18" fill="none" xmlns="http://www.w3.org/2000/svg">
<g clip-path="url(#clip0_4_4165)">
<path d="M8.72514 8.50391L8.37695 16.5068H9.52823L9.18004 8.50391H8.72514Z" fill="#E8E8E8"/>
<path d="M8.37695 0.5H9.52823L9.18004 8.50284H8.72514L8.37695 0.5Z" fill="#E8E8E8"/>
<path d="M16.953 7.92969V9.07536L8.9502 8.72717V8.27789L16.953 7.92969Z" fill="#E8E8E8"/>
<path d="M0.953125 9.07536V7.92969L8.95034 8.27789V8.72717L0.953125 9.07536Z" fill="#E8E8E8"/>
<path d="M15.0155 13.7537L14.2068 14.5681L8.79297 8.65995L9.11309 8.33984L15.0155 13.7537Z" fill="#E8E8E8"/>
<path d="M2.89062 3.25182L3.69934 2.4375L9.11318 8.33995L8.79307 8.66006L2.89062 3.25182Z" fill="#E8E8E8"/>
<path d="M14.2068 2.4375L15.0155 3.25182L9.11309 8.66006L8.79297 8.33995L14.2068 2.4375Z" fill="#E8E8E8"/>
<path d="M3.69934 14.5681L2.89062 13.7537L8.79307 8.33984L9.11318 8.66556L3.69934 14.5681Z" fill="#E8E8E8"/>
</g>
<defs>
<clipPath id="clip0_4_4165">
<rect width="16" height="17" fill="white" transform="translate(0.953125 0.5)"/>
</clipPath>
</defs>
</svg>
