<svg width="16" height="18" viewBox="0 0 16 18" fill="none" xmlns="http://www.w3.org/2000/svg">
<g clip-path="url(#clip0_4_4219)">
<path d="M8 5.0877L6.40987 0.921875L6.43729 5.41868L3.47087 2.21728L5.11583 6.35457L1.21727 4.60835L4.23304 7.7641L0 7.72987L3.92049 9.41903L0 11.1139L4.23304 11.0797L1.21727 14.2354L5.11583 12.4835L3.47087 16.6265L6.43729 13.4251L6.40987 17.9219L8 13.7561L9.59013 17.9219L9.56271 13.4251L12.5291 16.6265L10.8842 12.4835L14.7827 14.2354L11.767 11.0797L16 11.1139L12.0795 9.41903L16 7.72987L11.767 7.7641L14.7827 4.60835L10.8842 6.35457L12.5291 2.21728L9.56271 5.41868L9.59013 0.921875L8 5.0877Z" fill="#E8E8E8"/>
</g>
<defs>
<clipPath id="clip0_4_4219">
<rect width="16" height="17" fill="white" transform="translate(0 0.921875)"/>
</clipPath>
</defs>
</svg>
