<svg width="17" height="18" viewBox="0 0 17 18" fill="none" xmlns="http://www.w3.org/2000/svg">
<g clip-path="url(#clip0_4_4202)">
<path d="M12.6977 9.4228C12.6977 11.5284 11.092 13.2284 9.11594 13.2284C7.1398 13.2284 5.53418 11.5224 5.53418 9.4228C5.53418 7.32315 7.1398 5.61719 9.11594 5.61719C11.092 5.61719 12.6977 7.32315 12.6977 9.4228Z" fill="#E8E8E8"/>
<path d="M9.11594 13.2284C11.0941 13.2284 12.6977 11.5245 12.6977 9.4228C12.6977 7.32102 11.0941 5.61719 9.11594 5.61719C7.13779 5.61719 5.53418 7.32102 5.53418 9.4228C5.53418 11.5245 7.13779 13.2284 9.11594 13.2284Z" stroke="#E8E8E8" stroke-width="0.36" stroke-miterlimit="10"/>
<path d="M8.95312 0.921875V17.9219M0.953125 9.42188H16.9531" stroke="#E8E8E8" stroke-width="1.08" stroke-miterlimit="10"/>
</g>
<defs>
<clipPath id="clip0_4_4202">
<rect width="16" height="17" fill="white" transform="translate(0.953125 0.921875)"/>
</clipPath>
</defs>
</svg>
