<svg width="362" height="362" viewBox="0 0 362 362" fill="none" xmlns="http://www.w3.org/2000/svg">
<path d="M281.575 136.626L351.873 131.788C356.669 131.457 358.401 138.026 354.056 140.102L290.494 170.545C286.959 172.27 287.27 177.389 291.008 178.645L357.78 201.073C362.36 202.589 361.453 209.33 356.622 209.588L286.261 213.385C282.346 213.599 280.666 218.483 283.622 221.06L336.757 267.338C340.406 270.513 336.975 276.386 332.431 274.763L265.993 251.369C262.272 250.059 258.879 253.904 260.604 257.438L291.985 320.541C294.098 324.869 288.729 328.964 285.151 325.753L232.705 278.691C229.769 276.06 225.152 278.314 225.42 282.247L230.259 352.546C230.59 357.341 224.022 359.073 221.945 354.728L191.502 291.167C189.776 287.633 184.658 287.942 183.402 291.682L160.973 358.453C159.457 363.033 152.718 362.125 152.458 357.295L148.662 286.935C148.448 283.019 143.564 281.339 140.987 284.294L94.7092 337.429C91.5338 341.078 85.6611 337.647 87.2828 333.104L110.678 266.665C111.988 262.945 108.143 259.551 104.609 261.276L41.5056 292.659C37.178 294.771 33.0834 289.401 36.2941 285.823L83.3548 233.378C85.9858 230.442 83.7327 225.826 79.7989 226.093L9.50073 230.931C4.70569 231.262 2.97301 224.694 7.31823 222.618L70.8798 192.174C74.4142 190.448 74.1037 185.331 70.3651 184.074L3.59322 161.646C-0.986186 160.129 -0.0778229 153.39 4.75242 153.13L75.113 149.335C79.0277 149.12 80.7078 144.236 77.7522 141.66L24.6174 95.3816C20.9688 92.2055 24.3988 86.3334 28.9424 87.9562L95.3811 111.351C99.1024 112.661 102.495 108.816 100.77 105.282L69.3885 42.1782C67.276 37.8502 72.6463 33.7553 76.2228 36.9667L128.668 84.0274C131.604 86.6583 136.221 84.4046 135.953 80.4714L131.062 10.1549C130.731 5.35906 137.298 3.62735 139.375 7.97293L169.819 71.5339C171.544 75.0683 176.662 74.759 177.919 71.0192L200.383 4.23055C201.899 -0.349937 208.64 0.55782 208.898 5.38877L212.695 75.7489C212.908 79.6642 217.792 81.3443 220.369 78.3898L266.647 25.2537C269.823 21.6051 275.695 25.035 274.073 29.5787L250.677 96.0176C249.369 99.7383 253.212 103.132 256.747 101.406L319.851 70.0247C324.179 67.9123 328.274 73.2825 325.062 76.859L278.001 129.305C275.371 132.242 277.624 136.858 281.557 136.59L281.575 136.626Z" stroke="#E8E8E8" stroke-width="0.668651" stroke-miterlimit="10"/>
</svg>
