<svg width="182" height="182" viewBox="0 0 182 182" fill="none" xmlns="http://www.w3.org/2000/svg">
<path d="M141.122 68.9738L176.271 66.5557C178.669 66.3896 179.535 69.6736 177.362 70.7121L145.582 85.9339C143.814 86.7968 143.969 89.3551 145.839 89.9842L179.224 101.198C181.514 101.956 181.06 105.325 178.645 105.455L143.466 107.354C141.507 107.46 140.668 109.903 142.145 111.191L168.713 134.33C170.537 135.917 168.822 138.854 166.551 138.043L133.331 126.346C131.471 125.691 129.774 127.613 130.636 129.38L146.327 160.932C147.383 163.095 144.698 165.143 142.91 163.538L116.687 140.006C115.219 138.692 112.911 139.818 113.045 141.784L115.463 176.934C115.629 179.331 112.345 180.198 111.307 178.026L96.0847 146.244C95.2224 144.478 92.6629 144.633 92.035 146.502L80.8216 179.888C80.0628 182.178 76.6922 181.723 76.5639 179.308L74.6647 144.128C74.5578 142.171 72.1161 141.33 70.8274 142.809L47.6888 169.375C46.1002 171.2 43.165 169.485 43.9756 167.213L55.6736 133.994C56.3278 132.133 54.4062 130.437 52.6384 131.3L21.087 146.991C18.9238 148.047 16.8753 145.362 18.4815 143.573L42.0122 117.35C43.3271 115.882 42.2002 113.573 40.2342 113.707L5.08481 116.127C2.6861 116.292 1.82158 113.009 3.99359 111.971L35.7737 96.7488C37.5416 95.8859 37.386 93.3264 35.517 92.6985L2.1308 81.4839C-0.158611 80.7264 0.294658 77.3563 2.71038 77.2263L37.8901 75.3288C39.848 75.2213 40.6878 72.7802 39.2103 71.491L12.6432 48.3511C10.818 46.7643 12.5333 43.8273 14.8061 44.6391L48.0244 56.336C49.8848 56.9919 51.582 55.0697 50.7191 53.3019L35.0285 21.7505C33.9721 19.5861 36.6573 17.5388 38.4458 19.1451L64.6688 42.6745C66.1371 43.9906 68.4445 42.8643 68.3114 40.8966L65.8653 5.73915C65.6993 3.34102 68.9832 2.47469 70.0217 4.6479L85.2435 36.4281C86.1064 38.1959 88.6659 38.0403 89.2933 36.1701L100.526 2.7763C101.283 0.48569 104.654 0.940171 104.784 3.35469L106.682 38.5356C106.789 40.4936 109.23 41.3333 110.519 39.8558L133.657 13.2881C135.246 11.4636 138.182 13.1794 137.371 15.4504L125.673 48.6705C125.018 50.5303 126.941 52.2275 128.708 51.3646L160.26 35.6741C162.424 34.6176 164.471 37.3017 162.865 39.0913L139.335 65.3132C138.019 66.7814 139.146 69.0901 141.113 68.9558L141.122 68.9738Z" stroke="#E8E8E8" stroke-width="0.668651" stroke-miterlimit="10"/>
</svg>
