<svg width="536" height="536" viewBox="0 0 536 536" fill="none" xmlns="http://www.w3.org/2000/svg">
<path d="M417.475 201.548L521.723 194.374C528.835 193.882 531.403 203.623 524.959 206.702L430.702 251.848C425.461 254.407 425.92 261.996 431.466 263.86L530.483 297.12C537.275 299.367 535.929 309.362 528.765 309.746L424.426 315.376C418.619 315.694 416.129 322.936 420.511 326.758L499.306 395.385C504.717 400.094 499.63 408.803 492.892 406.396L394.368 371.704C388.85 369.761 383.819 375.462 386.377 380.704L432.913 474.282C436.046 480.701 428.083 486.772 422.778 482.01L345.005 412.222C340.65 408.321 333.805 411.663 334.201 417.496L341.376 521.743C341.867 528.855 332.127 531.424 329.048 524.979L283.901 430.723C281.343 425.481 273.753 425.94 271.89 431.486L238.63 530.502C236.382 537.296 226.387 535.948 226.004 528.786L220.374 424.445C220.057 418.64 212.814 416.149 208.992 420.531L140.365 499.326C135.655 504.738 126.947 499.65 129.354 492.913L164.046 394.388C165.989 388.87 160.287 383.839 155.046 386.397L61.4678 432.935C55.0503 436.067 48.9769 428.103 53.7394 422.799L123.528 345.025C127.43 340.671 124.088 333.825 118.254 334.221L14.0063 341.396C6.89452 341.887 4.32675 332.148 10.7701 329.068L105.028 283.922C110.269 281.364 109.809 273.773 104.265 271.911L5.247 238.65C-1.5451 236.403 -0.198963 226.408 6.96483 226.024L111.304 220.394C117.11 220.076 119.602 212.834 115.22 209.012L36.4236 140.385C31.0118 135.676 36.099 126.967 42.8376 129.374L141.361 164.067C146.879 166.009 151.911 160.308 149.352 155.067L102.816 61.488C99.6832 55.07 107.646 48.9976 112.951 53.7594L190.724 123.548C195.079 127.449 201.924 124.108 201.528 118.275L194.274 13.9992C193.783 6.88756 203.522 4.31934 206.602 10.7632L251.748 105.021C254.306 110.262 261.897 109.802 263.759 104.257L297.073 5.2137C299.321 -1.57876 309.316 -0.232288 309.7 6.93138L315.33 111.271C315.648 117.077 322.889 119.568 326.712 115.186L395.339 36.3904C400.048 30.9788 408.757 36.0662 406.35 42.8039L371.657 141.328C369.715 146.846 375.416 151.878 380.657 149.319L474.236 102.783C480.654 99.6503 486.726 107.613 481.964 112.917L412.176 190.691C408.275 195.046 411.616 201.891 417.449 201.495L417.475 201.548Z" stroke="#E8E8E8" stroke-width="0.668651" stroke-miterlimit="10"/>
</svg>
